ffmpeg version 5.1.4-0+deb12u1 Copyright (c) 2000-2023 the FFmpeg developers
  built with gcc 12 (Debian 12.2.0-14)
  configuration: --prefix=/usr --extra-version=0+deb12u1 --toolchain=hardened --libdir=/usr/lib/x86_64-linux-gnu --incdir=/usr/include/x86_64-linux-gnu --arch=amd64 --enable-gpl --disable-stripping --enable-gnutls --enable-ladspa --enable-libaom --enable-libass --enable-libbluray --enable-libbs2b --enable-libcaca --enable-libcdio --enable-libcodec2 --enable-libdav1d --enable-libflite --enable-libfontconfig --enable-libfreetype --enable-libfribidi --enable-libglslang --enable-libgme --enable-libgsm --enable-libjack --enable-libmp3lame --enable-libmysofa --enable-libopenjpeg --enable-libopenmpt --enable-libopus --enable-libpulse --enable-librabbitmq --enable-librist --enable-librubberband --enable-libshine --enable-libsnappy --enable-libsoxr --enable-libspeex --enable-libsrt --enable-libssh --enable-libsvtav1 --enable-libtheora --enable-libtwolame --enable-libvidstab --enable-libvorbis --enable-libvpx --enable-libwebp --enable-libx265 --enable-libxml2 --enable-libxvid --enable-libzimg --enable-libzmq --enable-libzvbi --enable-lv2 --enable-omx --enable-openal --enable-opencl --enable-opengl --enable-sdl2 --disable-sndio --enable-libjxl --enable-pocketsphinx --enable-librsvg --enable-libmfx --enable-libdc1394 --enable-libdrm --enable-libiec61883 --enable-chromaprint --enable-frei0r --enable-libx264 --enable-libplacebo --enable-librav1e --enable-shared
  libavutil      57. 28.100 / 57. 28.100
  libavcodec     59. 37.100 / 59. 37.100
  libavformat    59. 27.100 / 59. 27.100
  libavdevice    59.  7.100 / 59.  7.100
  libavfilter     8. 44.100 /  8. 44.100
  libswscale      6.  7.100 /  6.  7.100
  libswresample   4.  7.100 /  4.  7.100
  libpostproc    56.  6.100 / 56.  6.100
Input #0, ogg, from 'a.opus':
  Duration: 00:00:10.02, start: 0.020000, bitrate: 62 kb/s
  Stream #0:0(eng): Audio: opus, 48000 Hz, stereo, fltp
    Metadata:
      DURATION        : 01:00:03.621000000
      encoder         : Lavf59.27.100
Stream mapping:
  Stream #0:0 -> #0:0 (opus (native) -> pcm_s16le (native))
Press [q] to stop, [?] for help
Output #0, null, to 'pipe:':
  Metadata:
    encoder         : Lavf59.27.100
  Stream #0:0(eng): Audio: pcm_s16le, 48000 Hz, stereo, s16, 1536 kb/s
    Metadata:
      DURATION        : 01:00:03.621000000
      encoder         : Lavc59.37.100 pcm_s16le
size=N/A time=00:00:00.01 bitrate=N/A speed=1.35e+04x    [silencedetect @ 0x55d97b189940] silence_start: 1.71133
[silencedetect @ 0x55d97b189940] silence_end: 4.70152 | silence_duration: 2.99019
[silencedetect @ 0x55d97b189940] silence_start: 6.4451
size=N/A time=00:00:09.99 bitrate=N/A speed= 224x    
video:0kB audio:1874kB subtitle:0kB other streams:0kB global headers:0kB muxing overhead: unknown
[silencedetect @ 0x55d97b189940] silence_end: 9.9935 | silence_duration: 3.5484
